# xmcd
#
# Track frame offsets:
#	151
#	18012
#	37311
#	52895
#	67558
#	99117
#	117656
#	134482
#	151517
#	166698
#	185958
#	200916
#	216144
#
# Disc length: 3154 seconds
#
# Revision: 1
# Processed by: cddbd v1.4PL0 Copyright (c) Steve Scherf et al.
# Submitted via: audiograbber 1.81.01
#
DISCID=ac0c500d
DTITLE=Brickyard - EXIT:Bluesland
DYEAR=1999
DGENRE=Bluse
TTITLE0=Checked Out At Six
TTITLE1=Roller Coaster Blues
TTITLE2=Jr Stomp
TTITLE3=Time To Move On
TTITLE4=Blues All Around
TTITLE5=Don´t Bet
TTITLE6=Get Me My Suitcase
TTITLE7=Out On The Road
TTITLE8=Voodo Woman
TTITLE9=Mama´s Gor A Son
TTITLE10=Tame Me
TTITLE11=When You´re Gone
TTITLE12=Swing For B-O
EXTD=
EXTT0=
EXTT1=
EXTT2=
EXTT3=
EXTT4=
EXTT5=
EXTT6=
EXTT7=
EXTT8=
EXTT9=
EXTT10=
EXTT11=
EXTT12=
PLAYORDER=
